<?xml version="1.0" encoding="utf-8"?>
<!-- Generator: Adobe Illustrator 19.0.0, SVG Export Plug-In . SVG Version: 6.00 Build 0)  -->
<svg version="1.1" id="Calque_1" xmlns="http://www.w3.org/2000/svg" xmlns:xlink="http://www.w3.org/1999/xlink" x="0px" y="0px"
	 viewBox="-130 -60.2 250 51" style="enable-background:new -130 -60.2 250 51;" xml:space="preserve">
<style type="text/css">
	.st0{fill:#198350;}
	.st1{fill:#95C01F;}
	.st2{enable-background:new    ;}
	.st3{fill:#198450;}
</style>
<g>
	<g>
		<g>
			<g>
				<g>
					<path class="st0" d="M-100.6-16.7c-0.2,0-0.3,0.1-0.3,0.3c0,0.2,0.1,0.3,0.3,0.3s0.3-0.1,0.3-0.3S-100.4-16.7-100.6-16.7z"/>
					<path class="st1" d="M-118.2-21c0,0-0.1,0.1-0.1,0.1c0,0,0,0-0.1,0c0,0-0.1,0-0.1,0s-0.1,0-0.1-0.1c-0.1,0-0.1-0.1-0.1-0.1
						c0,0,0,0-0.1-0.1c0,0,0,0,0,0s0,0,0,0l0.3-0.6l-0.7-0.6l-0.5,0.4c0,0,0,0-0.1,0c0,0,0,0,0,0s0,0-0.1,0s-0.1,0-0.1-0.1
						s-0.1-0.1-0.1-0.1c0,0,0,0,0-0.1s0,0,0-0.1c0,0,0.1,0,0.1-0.1l2.5-1.6c0,0,0.1,0,0.1,0c0,0,0,0,0.1,0c0,0,0,0,0.1,0
						c0,0,0.1,0.1,0.1,0.1c0.1,0,0.1,0.1,0.1,0.1c0,0,0.1,0.1,0.1,0.1c0,0,0,0,0,0.1c0,0,0,0,0,0.1L-118.2-21z M-117.5-23.5
						L-117.5-23.5l-1.2,0.8l0.5,0.5L-117.5-23.5z"/>
					<path class="st1" d="M-116.6-20.4c-0.1,0.1-0.2,0.2-0.3,0.2c-0.1,0-0.2,0.1-0.3,0.1s-0.2,0-0.3,0c-0.1,0-0.2-0.1-0.3-0.1
						c-0.1,0-0.1-0.1-0.1-0.1c0,0-0.1-0.1-0.1-0.1s0-0.1-0.1-0.1c0,0,0-0.1,0-0.1c0,0,0,0,0-0.1c0,0,0.1-0.1,0.1-0.1
						c0,0,0-0.1,0.1-0.1s0,0,0.1,0c0,0,0,0,0,0c0,0,0,0,0,0s0,0,0,0.1c0,0,0,0.1,0,0.1c0,0,0,0.1,0.1,0.1s0.1,0.1,0.1,0.1
						c0,0,0.1,0,0.1,0.1c0,0,0.1,0,0.1,0c0,0,0.1,0,0.1,0c0,0,0.1,0,0.1-0.1s0-0.1,0-0.1c0,0,0-0.1,0-0.1c0,0,0-0.1-0.1-0.1
						c0,0-0.1-0.1-0.1-0.2c0,0,0-0.1-0.1-0.2c0-0.1,0-0.1,0-0.2s0-0.1,0-0.2c0-0.1,0.1-0.2,0.1-0.2c0.1-0.1,0.1-0.2,0.2-0.2
						c0.1,0,0.2-0.1,0.3-0.1c0.1,0,0.2,0,0.3,0c0.1,0,0.2,0.1,0.3,0.1c0,0,0.1,0.1,0.1,0.1s0.1,0.1,0.1,0.1c0,0,0,0.1,0,0.1
						c0,0,0,0,0,0.1s0,0,0,0c0,0,0,0,0,0c0,0,0,0,0,0.1c0,0,0,0-0.1,0.1c0,0-0.1,0.1-0.1,0.1c0,0,0,0-0.1,0s0,0,0,0c0,0,0,0,0,0
						s0,0,0,0c0,0,0-0.1,0-0.1c0,0,0-0.1-0.1-0.1c0,0-0.1-0.1-0.1-0.1c0,0-0.1,0-0.1-0.1c0,0-0.1,0-0.1,0c0,0-0.1,0-0.1,0
						c0,0,0,0-0.1,0.1c0,0-0.1,0.1-0.1,0.1c0,0,0,0.1,0,0.1c0,0,0,0.1,0.1,0.1s0.1,0.1,0.1,0.2c0,0,0,0.1,0.1,0.2c0,0.1,0,0.1,0,0.2
						c0,0.1,0,0.1,0,0.2C-116.5-20.5-116.6-20.4-116.6-20.4z"/>
					<path class="st1" d="M-115.2-19.4c-0.1,0.1-0.2,0.2-0.2,0.3s-0.2,0.1-0.3,0.1c-0.1,0-0.2,0-0.3,0c-0.1,0-0.2-0.1-0.3-0.1
						c0,0-0.1-0.1-0.1-0.1c0,0-0.1-0.1-0.1-0.1c0,0,0-0.1-0.1-0.1s0-0.1,0-0.1s0,0,0-0.1c0,0,0-0.1,0.1-0.1c0,0,0-0.1,0.1-0.1
						c0,0,0,0,0,0c0,0,0,0,0,0c0,0,0,0,0,0c0,0,0,0,0,0.1c0,0,0,0.1,0,0.1c0,0,0.1,0.1,0.1,0.1s0.1,0.1,0.1,0.1c0,0,0.1,0,0.1,0
						c0,0,0.1,0,0.1,0c0,0,0.1,0,0.1,0s0.1,0,0.1-0.1c0,0,0-0.1,0-0.1c0,0,0-0.1,0-0.1c0,0,0-0.1-0.1-0.1s-0.1-0.1-0.1-0.2
						c0,0-0.1-0.1-0.1-0.2c0-0.1,0-0.1,0-0.2c0-0.1,0-0.1,0-0.2c0-0.1,0.1-0.2,0.1-0.2c0.1-0.1,0.1-0.2,0.2-0.2
						c0.1-0.1,0.2-0.1,0.2-0.1s0.2,0,0.3,0s0.2,0.1,0.3,0.1c0,0,0.1,0.1,0.1,0.1c0,0,0.1,0.1,0.1,0.1c0,0,0,0.1,0.1,0.1
						c0,0,0,0,0,0.1c0,0,0,0,0,0c0,0,0,0,0,0c0,0,0,0,0,0.1c0,0,0,0,0,0.1c0,0,0,0.1-0.1,0.1c0,0,0,0-0.1,0c0,0,0,0,0,0s0,0,0,0
						s0,0,0,0c0,0,0-0.1,0-0.1c0,0,0-0.1-0.1-0.1c0,0-0.1-0.1-0.1-0.1c0,0-0.1,0-0.1,0c0,0-0.1,0-0.1,0s-0.1,0-0.1,0
						c0,0,0,0-0.1,0.1c0,0,0,0.1,0,0.1s0,0.1,0,0.1c0,0,0,0.1,0.1,0.1s0.1,0.1,0.1,0.2c0,0,0.1,0.1,0.1,0.2c0,0.1,0,0.1,0,0.2
						c0,0.1,0,0.1,0,0.2C-115.1-19.6-115.2-19.5-115.2-19.4z"/>
					<path class="st1" d="M-113.7-17.8C-113.7-17.8-113.7-17.8-113.7-17.8C-113.7-17.8-113.8-17.8-113.7-17.8c-0.1,0-0.1,0-0.1,0
						c0,0,0,0-0.1,0c0,0-0.1,0-0.1,0c0,0,0,0-0.1,0c0,0,0,0,0,0c0,0,0,0,0,0l0.1-0.2c-0.2,0.1-0.3,0.1-0.4,0.1c-0.1,0-0.2,0-0.3-0.1
						c-0.1-0.1-0.2-0.1-0.2-0.2c0-0.1-0.1-0.2-0.1-0.3c0-0.1,0-0.2,0-0.3c0-0.1,0.1-0.2,0.2-0.4l0.7-1.2c0,0,0,0,0,0c0,0,0,0,0,0
						c0,0,0,0,0.1,0c0,0,0.1,0,0.1,0c0,0,0.1,0,0.1,0.1c0,0,0,0,0.1,0c0,0,0,0,0,0c0,0,0,0,0,0l-0.6,1.1c-0.1,0.1-0.1,0.2-0.1,0.2
						c0,0.1,0,0.1,0,0.2s0,0.1,0,0.1c0,0,0,0.1,0.1,0.1c0.1,0,0.1,0,0.2,0c0.1,0,0.2-0.1,0.3-0.1l0.7-1.3c0,0,0,0,0,0c0,0,0,0,0,0
						s0,0,0.1,0c0,0,0.1,0,0.1,0s0.1,0,0.1,0.1c0,0,0,0,0.1,0c0,0,0,0,0,0c0,0,0,0,0,0L-113.7-17.8z"/>
					<path class="st1" d="M-111.3-18.9c0,0,0,0.1-0.1,0.1c0,0,0,0.1-0.1,0.1c0,0,0,0,0,0s0,0,0,0s0,0,0,0c0,0,0,0,0,0s0,0,0,0
						c0,0,0,0-0.1,0c0,0,0,0-0.1,0c0,0-0.1,0-0.1,0c0,0-0.1,0-0.1,0.1s-0.1,0.1-0.2,0.1l-0.6,1.3c0,0,0,0,0,0c0,0,0,0-0.1,0
						s-0.1,0-0.1,0c0,0-0.1,0-0.1,0s-0.1,0-0.1,0c0,0-0.1,0-0.1,0c0,0,0,0,0,0c0,0,0,0,0,0l0.9-2c0,0,0,0,0,0c0,0,0,0,0,0
						c0,0,0,0,0.1,0s0.1,0,0.1,0c0,0,0.1,0,0.1,0c0,0,0,0,0.1,0c0,0,0,0,0,0c0,0,0,0,0,0l-0.1,0.3c0.1-0.1,0.1-0.1,0.2-0.1
						c0.1,0,0.1-0.1,0.2-0.1c0.1,0,0.1,0,0.1,0c0,0,0.1,0,0.1,0c0,0,0,0,0.1,0c0,0,0,0,0.1,0c0,0,0,0,0,0c0,0,0,0,0,0c0,0,0,0,0,0
						s0,0,0,0c0,0,0,0,0,0.1C-111.2-19-111.2-19-111.3-18.9z"/>
					<path class="st1" d="M-110.3-16.5C-110.3-16.4-110.3-16.4-110.3-16.5c-0.1,0.1-0.1,0.1-0.1,0.1s-0.1,0-0.1,0s-0.1,0-0.1,0
						c0,0,0,0,0,0c0,0,0,0,0-0.1l0.1-0.2c-0.1,0.1-0.2,0.1-0.3,0.1c-0.1,0-0.2,0-0.3,0c-0.1,0-0.2-0.1-0.2-0.1s-0.1-0.1-0.1-0.2
						c0-0.1-0.1-0.2-0.1-0.3s0-0.2,0.1-0.3c0-0.1,0.1-0.2,0.2-0.3c0.1-0.1,0.2-0.1,0.2-0.2c0.1,0,0.2,0,0.3,0s0.3,0,0.4,0.1l0.2,0
						l0-0.1c0-0.1,0-0.1,0-0.2c0,0,0-0.1,0-0.1s0-0.1-0.1-0.1c0,0-0.1,0-0.1-0.1c-0.1,0-0.2,0-0.2,0c-0.1,0-0.1,0-0.2,0
						c0,0-0.1,0-0.1,0s-0.1,0-0.1,0c0,0,0,0,0,0c0,0,0,0,0-0.1c0,0,0,0,0-0.1c0,0,0-0.1,0-0.1c0,0,0-0.1,0.1-0.1c0,0,0,0,0.1-0.1
						c0,0,0.1,0,0.1,0c0.1,0,0.1,0,0.2,0c0.1,0,0.1,0,0.2,0s0.1,0,0.2,0c0.1,0,0.2,0.1,0.3,0.2s0.1,0.1,0.2,0.2c0,0.1,0.1,0.2,0,0.3
						c0,0.1,0,0.2-0.1,0.4L-110.3-16.5z M-110.4-17.5l-0.2-0.1c-0.1,0-0.1,0-0.2,0s-0.1,0-0.2,0s-0.1,0-0.1,0.1c0,0-0.1,0.1-0.1,0.1
						c0,0.1,0,0.2,0,0.2c0,0.1,0.1,0.1,0.2,0.1c0.1,0,0.1,0,0.2,0s0.1-0.1,0.2-0.1L-110.4-17.5z"/>
					<path class="st1" d="M-108-15.9C-108-15.9-108-15.9-108-15.9C-108-15.9-108-15.9-108-15.9c-0.1,0.1-0.1,0.1-0.1,0.1
						c0,0-0.1,0-0.1,0c0,0-0.1,0-0.1,0s0,0-0.1,0c0,0,0,0,0,0c0,0,0,0,0,0l0.3-1.2c0-0.1,0-0.2,0-0.3c0-0.1,0-0.1,0-0.2
						c0,0,0-0.1-0.1-0.1s-0.1,0-0.1-0.1c-0.1,0-0.1,0-0.2,0c-0.1,0-0.2,0.1-0.2,0.2l-0.3,1.4c0,0,0,0,0,0c0,0,0,0,0,0c0,0,0,0-0.1,0
						c0,0-0.1,0-0.1,0c0,0-0.1,0-0.1,0s0,0-0.1,0c0,0,0,0,0,0c0,0,0,0,0,0l0.5-2.2c0,0,0,0,0,0c0,0,0,0,0,0s0,0,0.1,0
						c0,0,0.1,0,0.1,0c0,0,0.1,0,0.1,0s0,0,0.1,0c0,0,0,0,0,0c0,0,0,0,0,0l-0.1,0.3c0.1-0.1,0.2-0.2,0.3-0.2s0.2-0.1,0.3,0
						c0.1,0,0.2,0.1,0.3,0.1c0.1,0.1,0.1,0.1,0.1,0.2c0,0.1,0,0.2,0,0.3c0,0.1,0,0.3-0.1,0.4L-108-15.9z"/>
					<path class="st1" d="M-105.9-16c0,0,0,0.1,0,0.1s0,0,0,0.1c0,0,0,0,0,0s0,0,0,0c0,0,0,0-0.1,0.1c0,0-0.1,0-0.1,0.1
						c-0.1,0-0.1,0-0.2,0c-0.1,0-0.1,0-0.2,0c-0.1,0-0.2,0-0.3-0.1c-0.1-0.1-0.2-0.2-0.2-0.3c-0.1-0.1-0.1-0.2-0.1-0.4
						c0-0.2,0-0.3,0-0.5c0-0.2,0.1-0.4,0.1-0.6c0.1-0.2,0.1-0.3,0.2-0.4c0.1-0.1,0.2-0.2,0.3-0.2s0.2-0.1,0.3,0c0,0,0.1,0,0.2,0
						c0.1,0,0.1,0,0.1,0.1c0,0,0.1,0,0.1,0.1c0,0,0,0,0.1,0.1c0,0,0,0,0,0c0,0,0,0,0,0s0,0,0,0.1s0,0.1,0,0.1c0,0.1,0,0.2,0,0.2
						c0,0,0,0.1-0.1,0c0,0,0,0-0.1,0c0,0-0.1,0-0.1-0.1c0,0-0.1-0.1-0.1-0.1s-0.1,0-0.2,0c-0.1,0-0.2,0-0.3,0.2
						c-0.1,0.1-0.1,0.3-0.2,0.5c0,0.1,0,0.2,0,0.3c0,0.1,0,0.2,0,0.2s0.1,0.1,0.1,0.2s0.1,0.1,0.2,0.1c0.1,0,0.1,0,0.2,0
						s0.1,0,0.1-0.1c0,0,0.1,0,0.1-0.1c0,0,0,0,0.1,0c0,0,0,0,0,0c0,0,0,0,0,0c0,0,0,0,0,0.1C-105.9-16.1-105.9-16.1-105.9-16z"/>
					<path class="st1" d="M-103.8-16.9c0,0.1,0,0.1,0,0.2c0,0-0.1,0.1-0.1,0.1l-1,0c0,0.1,0,0.2,0,0.3c0,0.1,0,0.1,0.1,0.2
						s0.1,0.1,0.2,0.1s0.1,0,0.2,0s0.2,0,0.2,0s0.1,0,0.2,0c0,0,0.1,0,0.1,0c0,0,0,0,0.1,0c0,0,0,0,0,0c0,0,0,0,0,0c0,0,0,0,0,0.1
						c0,0,0,0.1,0,0.1c0,0,0,0.1,0,0.1c0,0,0,0,0,0.1s0,0,0,0c0,0,0,0,0,0c0,0,0,0-0.1,0c0,0-0.1,0-0.1,0.1c-0.1,0-0.1,0-0.2,0
						c-0.1,0-0.2,0-0.2,0c-0.2,0-0.3,0-0.4-0.1c-0.1,0-0.2-0.1-0.3-0.2c-0.1-0.1-0.1-0.2-0.2-0.4c0-0.2-0.1-0.3-0.1-0.5
						c0-0.2,0-0.4,0-0.5s0.1-0.3,0.2-0.4c0.1-0.1,0.2-0.2,0.3-0.3c0.1-0.1,0.2-0.1,0.4-0.1c0.1,0,0.3,0,0.4,0.1
						c0.1,0,0.2,0.1,0.3,0.2c0.1,0.1,0.1,0.2,0.2,0.3S-103.9-17.1-103.8-16.9L-103.8-16.9z M-104.3-17c0-0.2,0-0.3-0.1-0.4
						c-0.1-0.1-0.2-0.2-0.3-0.2c-0.1,0-0.1,0-0.2,0c0,0-0.1,0.1-0.1,0.1s0,0.1-0.1,0.2c0,0.1,0,0.1,0,0.2L-104.3-17z"/>
					<path class="st1" d="M-102-16.5c0,0.1,0,0.2,0,0.3c0,0.1-0.1,0.2-0.1,0.3s-0.1,0.1-0.2,0.2c-0.1,0-0.2,0.1-0.3,0.1
						c-0.1,0-0.1,0-0.2,0s-0.1,0-0.2,0c-0.1,0-0.1,0-0.1,0c0,0-0.1,0-0.1,0c0,0,0,0,0-0.1s0-0.1,0-0.2c0,0,0-0.1,0-0.1
						c0,0,0,0,0-0.1s0,0,0,0c0,0,0,0,0,0s0,0,0.1,0c0,0,0.1,0,0.1,0c0,0,0.1,0,0.2,0s0.1,0,0.2,0c0,0,0.1,0,0.1,0c0,0,0.1,0,0.1-0.1
						c0,0,0,0,0.1-0.1c0,0,0-0.1,0-0.1s0-0.1-0.1-0.1s-0.1-0.1-0.1-0.1c0,0-0.1,0-0.1-0.1c-0.1,0-0.1,0-0.2-0.1
						c-0.1,0-0.1,0-0.2-0.1c0,0-0.1-0.1-0.1-0.1s-0.1-0.1-0.1-0.2c0-0.1-0.1-0.2-0.1-0.3c0-0.1,0-0.2,0-0.3c0-0.1,0.1-0.2,0.1-0.2
						c0.1-0.1,0.1-0.1,0.2-0.2c0.1,0,0.2-0.1,0.3-0.1c0,0,0.1,0,0.2,0c0.1,0,0.1,0,0.1,0c0,0,0.1,0,0.1,0c0,0,0.1,0,0.1,0
						c0,0,0,0,0,0c0,0,0,0,0,0c0,0,0,0,0,0.1c0,0,0,0.1,0,0.1c0,0,0,0.1,0,0.1s0,0,0,0.1s0,0,0,0c0,0,0,0,0,0s0,0-0.1,0
						c0,0-0.1,0-0.1,0c0,0-0.1,0-0.1,0c0,0-0.1,0-0.2,0c0,0-0.1,0-0.1,0c0,0,0,0-0.1,0.1s0,0,0,0.1c0,0,0,0.1,0,0.1c0,0,0,0.1,0,0.1
						s0.1,0.1,0.1,0.1c0,0,0.1,0,0.1,0.1c0.1,0,0.1,0,0.2,0.1s0.1,0,0.2,0.1c0,0,0.1,0.1,0.1,0.1s0.1,0.1,0.1,0.2
						C-102.1-16.7-102.1-16.6-102-16.5z"/>
					<path class="st1" d="M-98.2-16.8c-0.1,0.1-0.3,0.1-0.4,0.1c-0.3,0-0.6-0.2-0.8-0.5l-0.3-0.8l0.4-0.2l0.2,0.5
						c0,0.1,0.1,0.2,0.1,0.2c0.1,0.2,0.3,0.3,0.5,0.3c0.1,0,0.1,0,0.2,0l0.8-0.3l-0.6-1.5l0.4-0.2l0.7,1.9L-98.2-16.8z"/>
					<path class="st1" d="M-92.2-21.5c-0.2-0.2-0.4-0.4-0.6-0.5c-0.2-0.1-0.5,0-0.6,0.1c-0.2,0.1-0.2,0.3-0.2,0.6
						c0,0.3,0.1,0.5,0.3,0.7c0.1,0.1,0.1,0.2,0.2,0.2c0,0.1,0,0.2,0,0.3c0,0-0.1,0.1-0.2,0.2l-0.4,0.2l-0.9-1.3l-0.4,0.2l0.9,1.3
						l-0.7,0.4l-0.3,0.2l-0.8-1.4l-0.4,0.2l0.8,1.4l-0.4,0.2l0,0l-0.4,0.2l-1.2-2.4l-0.4,0.2l1.4,2.8l0.8-0.4l1.3-0.7l1.3-0.9l0,0
						l0.2-0.1c0.1-0.1,0.2-0.2,0.2-0.4l0,0c0,0,0,0,0,0c0.3,0.1,0.5,0.1,0.7-0.1c0.2-0.1,0.2-0.3,0.2-0.6
						C-91.9-21-92-21.3-92.2-21.5z M-92.4-20.5c-0.1,0.1-0.3,0-0.6-0.3s-0.3-0.5-0.1-0.7c0.1-0.1,0.3,0,0.6,0.3
						S-92.3-20.7-92.4-20.5z"/>
					<path class="st1" d="M-90.3-23l-0.9-0.9l-0.3,0.3l0.9,0.9c0.1,0.1,0.1,0.2,0,0.3l-0.4,0.4l-0.4,0.3l-1.8-2l-0.3,0.3l2.1,2.4
						l0.7-0.6l0.5-0.5C-89.9-22.3-89.9-22.6-90.3-23z"/>
					<path class="st1" d="M-96.3-20.8c0.1,0.1,0,0.2-0.1,0.3c-0.1,0.1-0.2,0-0.3-0.1c-0.1-0.1,0-0.2,0.1-0.3
						C-96.4-20.9-96.3-20.9-96.3-20.8z"/>
					<path class="st1" d="M-93.4-18.6c0.1,0.1,0.1,0.2-0.1,0.3c-0.1,0.1-0.2,0.1-0.3-0.1c-0.1-0.1-0.1-0.2,0.1-0.3
						C-93.6-18.7-93.5-18.7-93.4-18.6z"/>
					<path class="st1" d="M-92.9-18.9c0.1,0.1,0.1,0.2-0.1,0.3c-0.1,0.1-0.2,0.1-0.3-0.1c-0.1-0.1-0.1-0.2,0.1-0.3
						C-93.1-19.1-93-19-92.9-18.9z"/>
					<path class="st1" d="M-93.7-24.2L-93.7-24.2l0.1,0.1c0,0-0.1,0-0.1,0.1c0,0,0,0.1,0,0.1c0,0,0,0,0,0c0,0,0.1,0,0.1,0l0.1-0.1
						c0,0,0,0,0,0l0.1,0.1l-0.4,0.3l-0.1-0.1l0,0l0,0l0,0c-0.1-0.1-0.1-0.2-0.1-0.3C-93.8-24.2-93.7-24.2-93.7-24.2z"/>
					<path class="st1" d="M-92-24c0.1,0.1,0.1,0.2,0,0.3c-0.1,0.1-0.2,0.1-0.3,0c-0.1-0.1-0.1-0.2,0-0.3C-92.3-24.1-92.1-24.1-92-24
						z"/>
					<path class="st1" d="M-91.6-24.4c0.1,0.1,0.1,0.2,0,0.3c-0.1,0.1-0.2,0.1-0.3,0c-0.1-0.1-0.1-0.2,0-0.3
						C-91.8-24.5-91.7-24.5-91.6-24.4z"/>
					<path class="st1" d="M-98.9-19.2c0.1,0.2,0,0.3-0.1,0.3c-0.1,0-0.2,0-0.3-0.1c-0.1-0.2,0-0.3,0.1-0.3
						C-99.1-19.4-99-19.3-98.9-19.2z"/>
					<path class="st1" d="M-98.4-19.4c0.1,0.2,0,0.3-0.1,0.3c-0.1,0-0.2,0-0.3-0.1c0-0.2,0-0.3,0.1-0.3
						C-98.5-19.6-98.4-19.6-98.4-19.4z"/>
				</g>
				<g>
					<path class="st1" d="M-105-59.7c-11.7,0-21.2,9.7-21.2,21.8c0,5.7,2.1,10.8,5.6,14.7c-2.7-3.5-4.3-7.9-4.3-12.7
						c0-11.3,8.9-20.5,20-20.5s20,9.2,20,20.5c0,4.8-1.6,9.2-4.3,12.7c3.5-3.9,5.6-9,5.6-14.7C-83.8-49.9-93.3-59.7-105-59.7z"/>
					<path class="st0" d="M-85-49.7c2.2,3.5,3.4,7.7,3.4,12.2c0,12.9-10.4,23.4-23.3,23.4s-23.3-10.5-23.3-23.4
						c0-5,1.5-9.5,4.2-13.3c-3.7,4.4-5.9,10-5.9,16.2c0,13.8,11.2,25,25,25s25-11.2,25-25C-80-40.4-81.9-45.6-85-49.7z"/>
				</g>
				<polygon class="st0" points="-114.6,-43.5 -117.2,-37.1 -119.9,-43.5 -122.6,-43.5 -122.6,-28.5 -119.9,-28.5 -119.9,-37.1 
					-118.6,-33.9 -115.9,-33.9 -114.6,-37.1 -114.6,-28.5 -111.9,-28.5 -111.9,-43.5 				"/>
				<polygon class="st0" points="-88.5,-40.9 -88.5,-43.5 -94.2,-43.5 -96.9,-43.5 -96.9,-40.9 -96.9,-37.4 -96.9,-34.7 
					-96.9,-31.2 -96.9,-28.5 -94.2,-28.5 -88.5,-28.5 -88.5,-31.2 -94.2,-31.2 -94.2,-34.7 -90.9,-34.7 -90.9,-37.4 -94.2,-37.4 
					-94.2,-40.9 				"/>
				<g>
					<path class="st0" d="M-105-40.1l0.8,2.6c0.9,0,1.8-0.1,2.5-0.2l-1.9-5.8h-3l-1.8,5.8c0.8,0.1,1.6,0.2,2.5,0.2L-105-40.1z"/>
					<path class="st0" d="M-111.3-28.5h2.6l2-6.4c-0.9-0.1-1.8-0.2-2.5-0.3L-111.3-28.5z"/>
					<path class="st0" d="M-100.8-35.2c-0.7,0.2-1.6,0.3-2.5,0.3l2,6.4h2.6L-100.8-35.2z"/>
					<path class="st1" d="M-105-37c-2.5,0-4.7-0.4-5.9-0.9v0.3v2v0.3c1.2,0.5,3.4,0.9,5.9,0.9s4.7-0.4,5.9-0.9v-0.3v-2v-0.3
						C-100.3-37.3-102.5-37-105-37z"/>
				</g>
			</g>
		</g>
	</g>
	<g class="st2">
		<path class="st3" d="M-59.5-37.6h1.6v5.7c0,1.2-0.2,2-0.7,2.4s-1.4,0.6-2.8,0.6c-1.5,0-2.5-0.2-3-0.5c-0.5-0.4-0.7-1.1-0.7-2.3
			v-5.8h1.6v5.8c0,0.6,0.1,1,0.3,1.2c0.2,0.2,0.8,0.3,1.6,0.3c0.9,0,1.4-0.1,1.6-0.3s0.3-0.6,0.3-1.3V-37.6z"/>
		<path class="st3" d="M-56.4-35.1h1.4l-0.1,1l0,0c0.3-0.7,0.9-1.1,1.9-1.1c1.4,0,2.2,0.7,2.2,2v4.1h-1.5v-3.6v-0.2l0-0.4
			c-0.1-0.5-0.4-0.7-1.1-0.7c-1,0-1.5,0.5-1.5,1.4v3.6h-1.5V-35.1z"/>
		<path class="st3" d="M-46.3-35.1h1.5l-0.1,0.9l0,0c0.4-0.7,1-1,2-1c0.9,0,1.5,0.2,1.8,0.7c0.3,0.4,0.5,1.2,0.5,2.4
			c0,1.2-0.2,2-0.5,2.5s-0.9,0.7-1.8,0.7c-1,0-1.6-0.3-1.9-0.9h0v3.5h-1.5V-35.1z M-43.4-34c-0.6,0-0.9,0.1-1.1,0.4
			c-0.2,0.2-0.3,0.8-0.3,1.6c0,0.8,0.1,1.3,0.3,1.6s0.6,0.4,1.1,0.4c0.6,0,0.9-0.1,1.1-0.4c0.2-0.2,0.3-0.8,0.3-1.6
			c0-0.8-0.1-1.4-0.3-1.6S-42.8-34-43.4-34z"/>
		<path class="st3" d="M-36.7-35.1c1.2,0,1.9,0.2,2.3,0.6c0.4,0.4,0.5,1.2,0.5,2.4c0,1.3-0.2,2.2-0.5,2.6s-1.1,0.6-2.2,0.6
			c-1.2,0-2-0.2-2.4-0.6c-0.4-0.4-0.5-1.2-0.5-2.6c0-1.3,0.2-2.1,0.5-2.5C-38.6-34.9-37.9-35.1-36.7-35.1z M-36.7-34
			c-0.6,0-1,0.1-1.2,0.3c-0.2,0.2-0.2,0.7-0.2,1.5c0,0.9,0.1,1.5,0.2,1.7c0.2,0.2,0.5,0.3,1.2,0.3c0.6,0,1-0.1,1.1-0.4
			c0.2-0.2,0.2-0.8,0.2-1.7c0-0.8-0.1-1.3-0.2-1.5S-36.1-34-36.7-34z"/>
		<path class="st3" d="M-27.2-35.1v6h-1.5l0.1-1l0,0c-0.3,0.7-0.9,1.1-2,1.1c-1.4,0-2.1-0.7-2.1-2.1v-4.1h1.5v3.7
			c0,0.5,0.1,0.9,0.2,1c0.1,0.2,0.4,0.2,0.9,0.2c0.9,0,1.4-0.6,1.4-1.7v-3.3H-27.2z"/>
		<path class="st3" d="M-25.7-35.1h1.5l-0.1,0.8l0,0c0.3-0.6,0.9-0.9,1.6-0.9c1.1,0,1.6,0.7,1.6,2v0.4h-1.4c0-0.2,0-0.3,0-0.3
			c0-0.6-0.3-1-0.8-1c-0.7,0-1.1,0.5-1.1,1.4v3.6h-1.5V-35.1z"/>
		<path class="st3" d="M-13.5-36.2v7.2h-1.6v-7.2h-2.5v-1.5h6.7v1.5H-13.5z"/>
		<path class="st3" d="M-7.5-35.1c1.2,0,1.9,0.2,2.3,0.6c0.4,0.4,0.5,1.2,0.5,2.4c0,1.3-0.2,2.2-0.5,2.6s-1.1,0.6-2.2,0.6
			c-1.2,0-2-0.2-2.4-0.6c-0.4-0.4-0.5-1.2-0.5-2.6c0-1.3,0.2-2.1,0.5-2.5C-9.4-34.9-8.7-35.1-7.5-35.1z M-7.5-34
			c-0.6,0-1,0.1-1.2,0.3c-0.2,0.2-0.2,0.7-0.2,1.5c0,0.9,0.1,1.5,0.2,1.7c0.2,0.2,0.5,0.3,1.2,0.3c0.6,0,1-0.1,1.1-0.4
			c0.2-0.2,0.2-0.8,0.2-1.7c0-0.8-0.1-1.3-0.2-1.5S-6.9-34-7.5-34z"/>
		<path class="st3" d="M2-35.1v6H0.5l0.1-1l0,0c-0.3,0.7-0.9,1.1-2,1.1c-1.4,0-2.1-0.7-2.1-2.1v-4.1H-2v3.7c0,0.5,0.1,0.9,0.2,1
			c0.1,0.2,0.4,0.2,0.9,0.2c0.9,0,1.4-0.6,1.4-1.7v-3.3H2z"/>
		<path class="st3" d="M8.5-33.4H7.1c0-0.1,0-0.1,0-0.1C7.1-33.8,7-34,6.8-34c-0.1-0.1-0.5-0.1-1-0.1c-0.8,0-1.1,0.2-1.1,0.7
			c0,0.3,0.1,0.5,0.2,0.6c0.1,0.1,0.6,0.1,1.4,0.2c1,0.1,1.7,0.2,2,0.4c0.3,0.2,0.5,0.7,0.5,1.4c0,0.7-0.2,1.2-0.6,1.5
			c-0.4,0.3-1.2,0.4-2.2,0.4c-1,0-1.7-0.1-2.1-0.4c-0.4-0.3-0.6-0.7-0.6-1.4v-0.2h1.5c0,0.1,0,0.2,0,0.2c-0.1,0.5,0.4,0.8,1.2,0.8
			c0.9,0,1.4-0.3,1.4-0.8c0-0.5-0.3-0.8-0.9-0.8c-1.3,0-2.2-0.1-2.6-0.4s-0.6-0.8-0.6-1.5c0-0.7,0.2-1.2,0.6-1.4
			C4.2-35,4.9-35.1,6-35.1c1,0,1.7,0.1,2,0.4C8.4-34.5,8.5-34.1,8.5-33.4z"/>
		<path class="st3" d="M17.1-30.9h1.5v0.2c0,1.2-0.9,1.8-2.7,1.8c-1.2,0-2-0.2-2.4-0.6s-0.6-1.3-0.6-2.6c0-1.2,0.2-2,0.6-2.4
			s1.1-0.6,2.3-0.6c1.1,0,1.8,0.2,2.2,0.6c0.4,0.4,0.6,1.2,0.6,2.3v0.4h-4.1c0,0.1,0,0.2,0,0.3c0,0.6,0.1,1,0.3,1.2
			c0.2,0.2,0.6,0.3,1.1,0.3c0.5,0,0.9-0.1,1-0.2C17-30.3,17.1-30.6,17.1-30.9z M17.1-32.7l0-0.2c0-0.5-0.1-0.8-0.3-0.9
			S16.3-34,15.7-34c-0.5,0-0.9,0.1-1.1,0.3c-0.2,0.2-0.2,0.6-0.2,1.1H17.1z"/>
		<path class="st3" d="M23.7-35.1v1.1h-2.3v3c0,0.6,0.2,0.8,0.6,0.8c0.5,0,0.7-0.3,0.7-1v-0.2h1.2v0.3c0,0.3,0,0.5,0,0.7
			c-0.1,0.9-0.8,1.4-2.1,1.4c-1.3,0-1.9-0.6-1.9-1.8v-3.2h-0.8v-1.1h0.8v-1.4h1.5v1.4H23.7z"/>
		<path class="st3" d="M31.4-36.2v7.2h-1.6v-7.2h-2.5v-1.5H34v1.5H31.4z"/>
		<path class="st3" d="M37.5-35.1c1.2,0,1.9,0.2,2.3,0.6c0.4,0.4,0.5,1.2,0.5,2.4c0,1.3-0.2,2.2-0.5,2.6s-1.1,0.6-2.2,0.6
			c-1.2,0-2-0.2-2.4-0.6c-0.4-0.4-0.5-1.2-0.5-2.6c0-1.3,0.2-2.1,0.5-2.5C35.5-34.9,36.3-35.1,37.5-35.1z M37.5-34
			c-0.6,0-1,0.1-1.2,0.3c-0.2,0.2-0.2,0.7-0.2,1.5c0,0.9,0.1,1.5,0.2,1.7c0.2,0.2,0.5,0.3,1.2,0.3c0.6,0,1-0.1,1.1-0.4
			c0.2-0.2,0.2-0.8,0.2-1.7c0-0.8-0.1-1.3-0.2-1.5S38.1-34,37.5-34z"/>
		<path class="st3" d="M46.9-35.1v6h-1.5l0.1-1l0,0c-0.3,0.7-0.9,1.1-2,1.1c-1.4,0-2.1-0.7-2.1-2.1v-4.1H43v3.7c0,0.5,0.1,0.9,0.2,1
			c0.1,0.2,0.4,0.2,0.9,0.2c0.9,0,1.4-0.6,1.4-1.7v-3.3H46.9z"/>
		<path class="st3" d="M53.5-33.4h-1.4c0-0.1,0-0.1,0-0.1c0-0.3-0.1-0.5-0.3-0.5c-0.1-0.1-0.5-0.1-1-0.1c-0.8,0-1.1,0.2-1.1,0.7
			c0,0.3,0.1,0.5,0.2,0.6c0.1,0.1,0.6,0.1,1.4,0.2c1,0.1,1.7,0.2,2,0.4s0.5,0.7,0.5,1.4c0,0.7-0.2,1.2-0.6,1.5
			c-0.4,0.3-1.2,0.4-2.2,0.4c-1,0-1.7-0.1-2.1-0.4c-0.4-0.3-0.6-0.7-0.6-1.4v-0.2h1.5c0,0.1,0,0.2,0,0.2c-0.1,0.5,0.4,0.8,1.2,0.8
			c0.9,0,1.4-0.3,1.4-0.8c0-0.5-0.3-0.8-0.9-0.8c-1.3,0-2.2-0.1-2.6-0.4c-0.4-0.2-0.6-0.8-0.6-1.5c0-0.7,0.2-1.2,0.6-1.4
			c0.4-0.2,1.1-0.4,2.2-0.4c1,0,1.7,0.1,2,0.4C53.3-34.5,53.5-34.1,53.5-33.4z"/>
		<path class="st3" d="M58.1-35.1h1.5l-0.1,0.9l0,0c0.4-0.7,1-1,2-1c0.9,0,1.5,0.2,1.8,0.7c0.3,0.4,0.5,1.2,0.5,2.4
			c0,1.2-0.2,2-0.5,2.5s-0.9,0.7-1.8,0.7c-1,0-1.6-0.3-1.9-0.9h0v3.5h-1.5V-35.1z M61-34c-0.6,0-0.9,0.1-1.1,0.4
			c-0.2,0.2-0.3,0.8-0.3,1.6c0,0.8,0.1,1.3,0.3,1.6c0.2,0.3,0.6,0.4,1.1,0.4c0.6,0,0.9-0.1,1.1-0.4c0.2-0.2,0.3-0.8,0.3-1.6
			c0-0.8-0.1-1.4-0.3-1.6C61.9-33.9,61.6-34,61-34z"/>
		<path class="st3" d="M67.7-35.1c1.2,0,1.9,0.2,2.3,0.6c0.4,0.4,0.5,1.2,0.5,2.4c0,1.3-0.2,2.2-0.5,2.6s-1.1,0.6-2.2,0.6
			c-1.2,0-2-0.2-2.4-0.6c-0.4-0.4-0.5-1.2-0.5-2.6c0-1.3,0.2-2.1,0.5-2.5C65.7-34.9,66.5-35.1,67.7-35.1z M67.7-34
			c-0.6,0-1,0.1-1.2,0.3c-0.2,0.2-0.2,0.7-0.2,1.5c0,0.9,0.1,1.5,0.2,1.7c0.2,0.2,0.5,0.3,1.2,0.3c0.6,0,1-0.1,1.1-0.4
			c0.2-0.2,0.2-0.8,0.2-1.7c0-0.8-0.1-1.3-0.2-1.5S68.3-34,67.7-34z"/>
		<path class="st3" d="M77.2-35.1v6h-1.5l0.1-1l0,0c-0.3,0.7-0.9,1.1-2,1.1c-1.4,0-2.1-0.7-2.1-2.1v-4.1h1.5v3.7
			c0,0.5,0.1,0.9,0.2,1c0.1,0.2,0.4,0.2,0.9,0.2c0.9,0,1.4-0.6,1.4-1.7v-3.3H77.2z"/>
		<path class="st3" d="M78.7-35.1h1.5L80-34.2l0,0c0.3-0.6,0.9-0.9,1.6-0.9c1.1,0,1.6,0.7,1.6,2v0.4h-1.4c0-0.2,0-0.3,0-0.3
			c0-0.6-0.3-1-0.8-1c-0.7,0-1.1,0.5-1.1,1.4v3.6h-1.5V-35.1z"/>
		<path class="st3" d="M93-37.6h1.6v5.7c0,1.2-0.2,2-0.7,2.4c-0.5,0.4-1.4,0.6-2.8,0.6c-1.5,0-2.5-0.2-3-0.5
			c-0.5-0.4-0.7-1.1-0.7-2.3v-5.8h1.6v5.8c0,0.6,0.1,1,0.3,1.2c0.2,0.2,0.8,0.3,1.6,0.3c0.9,0,1.4-0.1,1.6-0.3
			c0.2-0.2,0.3-0.6,0.3-1.3V-37.6z"/>
		<path class="st3" d="M96.1-35.1h1.4l-0.1,1l0,0c0.3-0.7,0.9-1.1,1.9-1.1c1.4,0,2.2,0.7,2.2,2v4.1h-1.5v-3.6v-0.2l0-0.4
			C100-33.7,99.7-34,99-34c-1,0-1.5,0.5-1.5,1.4v3.6h-1.5V-35.1z"/>
	</g>
</g>
</svg>
